<svg xmlns="http://www.w3.org/2000/svg" viewBox="0 0 320 320" shape-rendering="crispEdges"><rect x="0" y="0" width="320" height="320" fill="#F7A43C"/><rect x="8" y="8" width="304" height="304" fill="none" stroke="#111" stroke-width="4"/><rect x="44" y="242" width="232" height="78" fill="#313B4F"/><rect x="66" y="224" width="188" height="38" fill="#313B4F"/><rect x="128" y="230" width="64" height="26" fill="#FFFFFF"/><rect x="54" y="234" width="24" height="24" fill="#FFFFFF"/><rect x="242" y="234" width="24" height="24" fill="#FFFFFF"/><rect x="132" y="208" width="56" height="38" fill="#9A6547"/><rect x="78" y="112" width="22" height="72" fill="#9A6547"/><rect x="220" y="112" width="22" height="72" fill="#9A6547"/><rect x="96" y="74" width="128" height="150" fill="#9A6547"/><rect x="96" y="56" width="128" height="30" fill="#5A3927"/><rect x="96" y="44" width="72" height="18" fill="#5A3927"/><rect x="88" y="72" width="16" height="54" fill="#5A3927"/><rect x="112" y="110" width="38" height="8" fill="#5A3927"/><rect x="170" y="110" width="38" height="8" fill="#5A3927"/><rect x="136" y="122" width="48" height="26" fill="#F6F6F6"/><rect x="154" y="126" width="14" height="20" fill="#47763C"/><rect x="151" y="144" width="18" height="30" fill="#B58A74"/><rect x="108" y="160" width="16" height="8" fill="#E07A7A"/><rect x="196" y="160" width="16" height="8" fill="#E07A7A"/><rect x="132" y="172" width="26" height="10" fill="#5A3927"/><rect x="162" y="172" width="26" height="10" fill="#5A3927"/><rect x="146" y="176" width="28" height="28" fill="#111"/><rect x="168" y="118" width="48" height="36" fill="#171717"/><rect x="106" y="110" width="110" height="8" fill="#171717"/></svg>