<svg xmlns="http://www.w3.org/2000/svg" viewBox="0 0 320 320" shape-rendering="crispEdges"><rect x="0" y="0" width="320" height="320" fill="#E9EEF4"/><rect x="8" y="8" width="304" height="304" fill="none" stroke="#111" stroke-width="4"/><rect x="40" y="246" width="240" height="74" fill="#2B3D55"/><rect x="126" y="230" width="68" height="26" fill="#F2F2F2"/><rect x="144" y="250" width="32" height="70" fill="#2EA66F"/><rect x="58" y="260" width="28" height="18" fill="#2EA66F"/><rect x="132" y="208" width="56" height="38" fill="#E7C14F"/><rect x="78" y="112" width="22" height="72" fill="#E7C14F"/><rect x="220" y="112" width="22" height="72" fill="#E7C14F"/><rect x="96" y="74" width="128" height="150" fill="#E7C14F"/><rect x="148" y="20" width="28" height="60" fill="#B88A1D"/><rect x="96" y="70" width="128" height="16" fill="#B88A1D"/><rect x="112" y="110" width="38" height="8" fill="#B88A1D"/><rect x="170" y="110" width="38" height="8" fill="#B88A1D"/><rect x="114" y="124" width="34" height="22" fill="#F7F7F7"/><rect x="172" y="124" width="34" height="22" fill="#F7F7F7"/><rect x="126" y="128" width="8" height="18" fill="#6C3E8A"/><rect x="184" y="128" width="8" height="18" fill="#6C3E8A"/><rect x="151" y="144" width="18" height="30" fill="#E7C14F"/><rect x="146" y="176" width="28" height="28" fill="#111"/><rect x="106" y="120" width="48" height="30" fill="#10151B"/><rect x="166" y="120" width="48" height="30" fill="#10151B"/><rect x="154" y="130" width="12" height="8" fill="#10151B"/><rect x="92" y="38" width="136" height="28" fill="#2B4C7E"/><rect x="126" y="24" width="82" height="24" fill="#2B4C7E"/><rect x="208" y="54" width="46" height="12" fill="#2B4C7E"/></svg>