<svg xmlns="http://www.w3.org/2000/svg" viewBox="0 0 320 320" shape-rendering="crispEdges"><rect x="0" y="0" width="320" height="320" fill="#B7FF1A"/><rect x="8" y="8" width="304" height="304" fill="none" stroke="#111" stroke-width="4"/><rect x="40" y="246" width="240" height="74" fill="#2B3D55"/><rect x="126" y="230" width="68" height="26" fill="#FFF4DF"/><rect x="144" y="250" width="32" height="70" fill="#2EA66F"/><rect x="58" y="260" width="28" height="18" fill="#2EA66F"/><rect x="132" y="208" width="56" height="38" fill="#B97745"/><rect x="78" y="112" width="22" height="72" fill="#B97745"/><rect x="220" y="112" width="22" height="72" fill="#B97745"/><rect x="96" y="74" width="128" height="150" fill="#B97745"/><rect x="96" y="56" width="128" height="30" fill="#3A241B"/><rect x="96" y="44" width="72" height="18" fill="#3A241B"/><rect x="88" y="72" width="16" height="54" fill="#3A241B"/><rect x="112" y="110" width="38" height="8" fill="#3A241B"/><rect x="170" y="110" width="38" height="8" fill="#3A241B"/><rect x="114" y="124" width="34" height="22" fill="#F7F7F7"/><rect x="172" y="124" width="34" height="22" fill="#F7F7F7"/><rect x="126" y="128" width="12" height="18" fill="#101010"/><rect x="184" y="128" width="12" height="18" fill="#101010"/><rect x="151" y="144" width="18" height="30" fill="#B58A74"/><rect x="138" y="180" width="44" height="20" fill="#111"/><rect x="144" y="182" width="32" height="10" fill="#F8F8F8"/><rect x="106" y="120" width="48" height="30" fill="#10151B"/><rect x="166" y="120" width="48" height="30" fill="#10151B"/><rect x="154" y="130" width="12" height="8" fill="#10151B"/><rect x="78" y="44" width="164" height="16" fill="#8A603D"/><rect x="112" y="16" width="96" height="38" fill="#9C704A"/></svg>