<svg xmlns="http://www.w3.org/2000/svg" viewBox="0 0 320 320" shape-rendering="crispEdges"><rect x="0" y="0" width="320" height="320" fill="#B693E8"/><rect x="8" y="8" width="304" height="304" fill="none" stroke="#111" stroke-width="4"/><rect x="40" y="244" width="240" height="76" fill="#6A45A5"/><rect x="126" y="228" width="68" height="28" fill="#F0D36B"/><rect x="146" y="248" width="28" height="72" fill="#F0D36B"/><rect x="132" y="208" width="56" height="38" fill="#BFC8D4"/><rect x="78" y="112" width="22" height="72" fill="#BFC8D4"/><rect x="220" y="112" width="22" height="72" fill="#BFC8D4"/><rect x="96" y="74" width="128" height="150" fill="#BFC8D4"/><circle cx="106" cy="62" r="14" fill="#55606D"/><circle cx="130" cy="62" r="14" fill="#55606D"/><circle cx="154" cy="62" r="14" fill="#55606D"/><circle cx="178" cy="62" r="14" fill="#55606D"/><circle cx="202" cy="62" r="14" fill="#55606D"/><circle cx="226" cy="62" r="14" fill="#55606D"/><rect x="92" y="64" width="136" height="24" fill="#55606D"/><rect x="112" y="110" width="38" height="8" fill="#55606D"/><rect x="170" y="110" width="38" height="8" fill="#55606D"/><rect x="136" y="122" width="48" height="26" fill="#F6F6F6"/><rect x="154" y="126" width="14" height="20" fill="#47763C"/><rect x="151" y="144" width="18" height="30" fill="#BFC8D4"/><rect x="132" y="172" width="26" height="10" fill="#55606D"/><rect x="162" y="172" width="26" height="10" fill="#55606D"/><rect x="146" y="176" width="28" height="28" fill="#111"/><rect x="72" y="104" width="18" height="82" fill="#17253A"/><rect x="230" y="104" width="18" height="82" fill="#17253A"/><rect x="72" y="92" width="176" height="12" fill="#17253A"/><rect x="230" y="176" width="38" height="10" fill="#17253A"/><rect x="258" y="176" width="10" height="28" fill="#17253A"/><rect x="78" y="44" width="164" height="16" fill="#8A603D"/><rect x="112" y="16" width="96" height="38" fill="#9C704A"/></svg>