<svg xmlns="http://www.w3.org/2000/svg" viewBox="0 0 320 320" shape-rendering="crispEdges"><rect x="0" y="0" width="320" height="320" fill="#C8FF00"/><rect x="8" y="8" width="304" height="304" fill="none" stroke="#111" stroke-width="4"/><rect x="40" y="244" width="240" height="76" fill="#6A45A5"/><rect x="126" y="228" width="68" height="28" fill="#F0D36B"/><rect x="146" y="248" width="28" height="72" fill="#F0D36B"/><rect x="132" y="208" width="56" height="38" fill="#84D36A"/><rect x="78" y="112" width="22" height="72" fill="#84D36A"/><rect x="220" y="112" width="22" height="72" fill="#84D36A"/><rect x="96" y="74" width="128" height="150" fill="#84D36A"/><circle cx="106" cy="62" r="14" fill="#D5AE6B"/><circle cx="130" cy="62" r="14" fill="#D5AE6B"/><circle cx="154" cy="62" r="14" fill="#D5AE6B"/><circle cx="178" cy="62" r="14" fill="#D5AE6B"/><circle cx="202" cy="62" r="14" fill="#D5AE6B"/><circle cx="226" cy="62" r="14" fill="#D5AE6B"/><rect x="92" y="64" width="136" height="24" fill="#D5AE6B"/><rect x="112" y="110" width="38" height="8" fill="#D5AE6B"/><rect x="170" y="110" width="38" height="8" fill="#D5AE6B"/><rect x="114" y="124" width="34" height="22" fill="#F7F7F7"/><rect x="172" y="124" width="34" height="22" fill="#F7F7F7"/><rect x="126" y="128" width="8" height="18" fill="#2D5F80"/><rect x="184" y="128" width="8" height="18" fill="#2D5F80"/><rect x="151" y="144" width="18" height="30" fill="#84D36A"/><rect x="142" y="184" width="32" height="8" fill="#111"/><rect x="172" y="186" width="42" height="8" fill="#6C3B20"/><rect x="208" y="180" width="18" height="18" fill="#6C3B20"/><rect x="106" y="120" width="48" height="36" fill="none" stroke="#222" stroke-width="8"/><rect x="166" y="120" width="48" height="36" fill="none" stroke="#222" stroke-width="8"/><rect x="154" y="132" width="12" height="8" fill="#222"/><rect x="112" y="24" width="96" height="26" fill="#E7C65B"/><rect x="112" y="8" width="18" height="28" fill="#E7C65B"/><rect x="151" y="4" width="18" height="32" fill="#E7C65B"/><rect x="190" y="8" width="18" height="28" fill="#E7C65B"/></svg>