<svg xmlns="http://www.w3.org/2000/svg" viewBox="0 0 320 320" shape-rendering="crispEdges"><rect x="0" y="0" width="320" height="320" fill="#8ED8C0"/><rect x="8" y="8" width="304" height="304" fill="none" stroke="#111" stroke-width="4"/><rect x="42" y="246" width="236" height="74" fill="#3D2C46"/><rect x="126" y="220" width="68" height="42" fill="#3D2C46"/><rect x="132" y="208" width="56" height="38" fill="#71452F"/><rect x="78" y="112" width="22" height="72" fill="#71452F"/><rect x="220" y="112" width="22" height="72" fill="#71452F"/><rect x="96" y="74" width="128" height="150" fill="#71452F"/><rect x="148" y="20" width="28" height="60" fill="#B07B4E"/><rect x="96" y="70" width="128" height="16" fill="#B07B4E"/><rect x="112" y="110" width="38" height="8" fill="#B07B4E"/><rect x="170" y="110" width="38" height="8" fill="#B07B4E"/><rect x="114" y="124" width="34" height="22" fill="#F7F7F7"/><rect x="172" y="124" width="34" height="22" fill="#F7F7F7"/><rect x="126" y="128" width="12" height="18" fill="#6C3E8A"/><rect x="184" y="128" width="12" height="18" fill="#6C3E8A"/><rect x="151" y="144" width="18" height="30" fill="#B58A74"/><rect x="138" y="180" width="44" height="20" fill="#111"/><rect x="144" y="182" width="32" height="10" fill="#F8F8F8"/><circle cx="190" cy="137" r="23" fill="none" stroke="#222" stroke-width="7"/><rect x="211" y="148" width="8" height="54" fill="#222"/><rect x="78" y="44" width="164" height="16" fill="#8A603D"/><rect x="112" y="16" width="96" height="38" fill="#9C704A"/></svg>