<svg xmlns="http://www.w3.org/2000/svg" viewBox="0 0 320 320" shape-rendering="crispEdges"><rect x="0" y="0" width="320" height="320" fill="#B693E8"/><rect x="8" y="8" width="304" height="304" fill="none" stroke="#111" stroke-width="4"/><rect x="40" y="246" width="240" height="74" fill="#2B3D55"/><rect x="126" y="230" width="68" height="26" fill="#FFFFFF"/><rect x="144" y="250" width="32" height="70" fill="#2EA66F"/><rect x="58" y="260" width="28" height="18" fill="#2EA66F"/><rect x="132" y="208" width="56" height="38" fill="#C98252"/><rect x="78" y="112" width="22" height="72" fill="#C98252"/><rect x="220" y="112" width="22" height="72" fill="#C98252"/><rect x="96" y="74" width="128" height="150" fill="#C98252"/><rect x="96" y="66" width="128" height="14" fill="#111111"/><rect x="112" y="110" width="38" height="8" fill="#111111"/><rect x="170" y="110" width="38" height="8" fill="#111111"/><rect x="114" y="124" width="34" height="22" fill="#F7F7F7"/><rect x="172" y="124" width="34" height="22" fill="#F7F7F7"/><rect x="126" y="128" width="8" height="18" fill="#101010"/><rect x="184" y="128" width="8" height="18" fill="#101010"/><rect x="151" y="144" width="18" height="30" fill="#B58A74"/><rect x="116" y="168" width="88" height="48" fill="#111111"/><rect x="132" y="158" width="56" height="18" fill="#111111"/><rect x="142" y="180" width="38" height="16" fill="#111111"/><rect x="150" y="180" width="22" height="8" fill="#F5F0E8"/><rect x="112" y="22" width="96" height="40" fill="#F4F4F4"/><circle cx="124" cy="22" r="18" fill="#F4F4F4"/><circle cx="160" cy="12" r="22" fill="#F4F4F4"/><circle cx="196" cy="22" r="18" fill="#F4F4F4"/></svg>