<svg xmlns="http://www.w3.org/2000/svg" viewBox="0 0 320 320" shape-rendering="crispEdges"><rect x="0" y="0" width="320" height="320" fill="#8FB6E0"/><rect x="8" y="8" width="304" height="304" fill="none" stroke="#111" stroke-width="4"/><rect x="42" y="246" width="236" height="74" fill="#F4F4F4"/><rect x="128" y="230" width="64" height="24" fill="#F2F2F2"/><rect x="144" y="250" width="32" height="70" fill="#F4C542"/><rect x="132" y="208" width="56" height="38" fill="#71452F"/><rect x="78" y="112" width="22" height="72" fill="#71452F"/><rect x="220" y="112" width="22" height="72" fill="#71452F"/><rect x="96" y="74" width="128" height="150" fill="#71452F"/><rect x="96" y="66" width="128" height="14" fill="#7B4C2D"/><rect x="112" y="110" width="38" height="8" fill="#7B4C2D"/><rect x="170" y="110" width="38" height="8" fill="#7B4C2D"/><rect x="136" y="122" width="48" height="26" fill="#F6F6F6"/><rect x="154" y="126" width="14" height="20" fill="#6C3E8A"/><rect x="151" y="144" width="18" height="30" fill="#B58A74"/><rect x="142" y="184" width="36" height="8" fill="#111"/><rect x="142" y="176" width="10" height="8" fill="#111"/><rect x="106" y="120" width="48" height="30" fill="#10151B"/><rect x="166" y="120" width="48" height="30" fill="#10151B"/><rect x="154" y="130" width="12" height="8" fill="#10151B"/><circle cx="232" cy="174" r="8" fill="#E8C44F"/><rect x="100" y="30" width="120" height="34" fill="#F4C542"/><rect x="92" y="56" width="136" height="14" fill="#D9A61F"/><rect x="150" y="22" width="20" height="18" fill="#F4C542"/></svg>